<svg width="33" height="38" viewBox="0 0 33 38" fill="none" xmlns="http://www.w3.org/2000/svg">
<path d="M18.7325 6.61833C18.5164 6.61833 18.3092 6.53493 18.1564 6.38646C18.0037 6.23799 17.9178 6.03663 17.9178 5.82667V3.16667C17.9178 2.29425 17.1862 1.58333 16.2885 1.58333C15.3907 1.58333 14.6591 2.29425 14.6591 3.16667V5.82667C14.6591 6.03663 14.5732 6.23799 14.4205 6.38646C14.2677 6.53493 14.0605 6.61833 13.8444 6.61833C13.6283 6.61833 13.4211 6.53493 13.2683 6.38646C13.1155 6.23799 13.0297 6.03663 13.0297 5.82667V3.16667C13.0297 1.42025 14.4912 0 16.2885 0C18.0857 0 19.5472 1.42025 19.5472 3.16667V5.82667C19.5472 6.03663 19.4614 6.23799 19.3086 6.38646C19.1558 6.53493 18.9486 6.61833 18.7325 6.61833ZM16.2885 38C13.1438 38 10.5856 35.5142 10.5856 32.4583C10.5856 32.2484 10.6715 32.047 10.8242 31.8985C10.977 31.7501 11.1843 31.6667 11.4003 31.6667C11.6164 31.6667 11.8236 31.7501 11.9764 31.8985C12.1292 32.047 12.215 32.2484 12.215 32.4583C12.215 34.6402 14.0432 36.4167 16.2885 36.4167C18.5337 36.4167 20.3619 34.6402 20.3619 32.4583C20.3619 32.2484 20.4477 32.047 20.6005 31.8985C20.7533 31.7501 20.9605 31.6667 21.1766 31.6667C21.3927 31.6667 21.5999 31.7501 21.7527 31.8985C21.9054 32.047 21.9913 32.2484 21.9913 32.4583C21.9913 35.5142 19.4331 38 16.2885 38Z" fill="#595959"/>
<path d="M30.1381 33.25H2.43873C1.93993 33.2483 1.45357 33.0985 1.0448 32.8207C0.636034 32.543 0.324373 32.1504 0.151564 31.6958C-0.0212455 31.2411 -0.0469503 30.7459 0.0778918 30.2766C0.202734 29.8074 0.472162 29.3863 0.850087 29.07C2.11395 28.0362 3.12981 26.7462 3.82644 25.2906C4.52308 23.8349 4.88362 22.2488 4.88279 20.6435V15.8333C4.88279 9.72167 9.99904 4.75 16.2884 4.75C22.5778 4.75 27.6941 9.72167 27.6941 15.8333V20.6435C27.6941 23.8941 29.1589 26.961 31.7137 29.0589C32.0961 29.3732 32.3699 29.7939 32.4983 30.2642C32.6266 30.7346 32.6033 31.2319 32.4315 31.6889C32.2597 32.146 31.9476 32.5408 31.5375 32.8199C31.1273 33.0991 30.6389 33.2492 30.1381 33.25ZM16.2884 6.33333C10.8968 6.33333 6.51217 10.5941 6.51217 15.8333V20.6435C6.51397 22.4764 6.10352 24.2875 5.30955 25.9501C4.51558 27.6127 3.35727 29.0866 1.9157 30.2686C1.78768 30.373 1.6958 30.5131 1.65252 30.67C1.60924 30.8268 1.61665 30.9928 1.67375 31.1455C1.73085 31.2981 1.83488 31.43 1.97172 31.5232C2.10856 31.6164 2.2716 31.6665 2.43873 31.6667H30.1381C30.3047 31.6667 30.4672 31.6171 30.6039 31.5246C30.7405 31.4321 30.8447 31.3011 30.9024 31.1493C30.9601 30.9975 30.9686 30.8321 30.9266 30.6755C30.8846 30.5189 30.7943 30.3785 30.6677 30.2733C29.2248 29.091 28.0652 27.6165 27.2702 25.9531C26.4751 24.2897 26.0636 22.4776 26.0647 20.6435V15.8333C26.0647 10.5941 21.68 6.33333 16.2884 6.33333Z" fill="#595959"/>
</svg>
