<svg width="18" height="18" viewBox="0 0 18 18" fill="none" xmlns="http://www.w3.org/2000/svg">
<path fill-rule="evenodd" clip-rule="evenodd" d="M15.75 4.5C15.9489 4.5 16.1397 4.57902 16.2803 4.71967C16.421 4.86032 16.5 5.05109 16.5 5.25V14.25C16.5 14.8467 16.2629 15.419 15.841 15.841C15.419 16.2629 14.8467 16.5 14.25 16.5H5.25C5.05109 16.5 4.86032 16.421 4.71967 16.2803C4.57902 16.1397 4.5 15.9489 4.5 15.75C4.5 15.5511 4.57902 15.3603 4.71967 15.2197C4.86032 15.079 5.05109 15 5.25 15H14.25C14.4489 15 14.6397 14.921 14.7803 14.7803C14.921 14.6397 15 14.4489 15 14.25V5.25C15 5.05109 15.079 4.86032 15.2197 4.71967C15.3603 4.57902 15.5511 4.5 15.75 4.5Z" fill="white"/>
<path fill-rule="evenodd" clip-rule="evenodd" d="M1.5 3.75C1.5 3.15326 1.73705 2.58097 2.15901 2.15901C2.58097 1.73705 3.15326 1.5 3.75 1.5H11.25C11.8467 1.5 12.419 1.73705 12.841 2.15901C13.2629 2.58097 13.5 3.15326 13.5 3.75V11.25C13.5 11.8467 13.2629 12.419 12.841 12.841C12.419 13.2629 11.8467 13.5 11.25 13.5H3.75C3.15326 13.5 2.58097 13.2629 2.15901 12.841C1.73705 12.419 1.5 11.8467 1.5 11.25V3.75ZM3.75 3C3.55109 3 3.36032 3.07902 3.21967 3.21967C3.07902 3.36032 3 3.55109 3 3.75V11.25C3 11.4489 3.07902 11.6397 3.21967 11.7803C3.36032 11.921 3.55109 12 3.75 12H11.25C11.4489 12 11.6397 11.921 11.7803 11.7803C11.921 11.6397 12 11.4489 12 11.25V3.75C12 3.55109 11.921 3.36032 11.7803 3.21967C11.6397 3.07902 11.4489 3 11.25 3H3.75Z" fill="white"/>
<path fill-rule="evenodd" clip-rule="evenodd" d="M6.543 5.89643C6.48583 5.86778 6.42228 5.85423 6.35839 5.85706C6.29451 5.85989 6.23241 5.87901 6.178 5.91261C6.12358 5.9462 6.07867 5.99315 6.04751 6.049C6.01636 6.10484 6 6.16773 6 6.23168V8.76818C6 8.83212 6.01636 8.89501 6.04751 8.95086C6.07867 9.0067 6.12358 9.05365 6.178 9.08725C6.23241 9.12084 6.29451 9.13996 6.35839 9.1428C6.42228 9.14563 6.48583 9.13208 6.543 9.10343L9.0795 7.83593C9.1419 7.80483 9.1944 7.75694 9.23109 7.69766C9.26779 7.63837 9.28723 7.57003 9.28723 7.5003C9.28723 7.43058 9.26779 7.36224 9.23109 7.30295C9.1944 7.24366 9.1419 7.19578 9.0795 7.16468L6.543 5.89643Z" fill="white"/>
</svg>
