<svg width="25" height="25" viewBox="0 0 25 25" fill="none" xmlns="http://www.w3.org/2000/svg">
<path d="M16.9747 7.179C16.8976 7.04866 16.7807 6.94768 16.642 6.89151C16.5033 6.83533 16.3504 6.82706 16.2067 6.86794C16.0629 6.90882 15.9363 6.99661 15.8461 7.11789C15.7558 7.23917 15.707 7.38727 15.707 7.53954C15.707 8.39039 15.0287 9.08247 14.1951 9.08247C13.3614 9.08247 12.6832 8.39039 12.6832 7.53954V1.6971C12.6832 1.5592 12.6431 1.42441 12.568 1.30977C12.4929 1.19512 12.3862 1.10575 12.2614 1.05297C12.1366 1.00026 11.9992 0.986503 11.8667 1.01343C11.7342 1.04035 11.6125 1.10675 11.5169 1.20424C11.4404 1.28246 9.61862 3.15214 7.77316 5.97724C6.68496 7.64299 5.81649 9.29537 5.19208 10.8883C4.40117 12.9063 4 14.8385 4 16.6306C4 21.1322 7.58886 24.7946 11.9999 24.7946C16.4111 24.7946 20 21.1322 20 16.6306C20 13.7492 18.9821 10.5692 16.9747 7.179ZM11.9999 23.4003C8.34224 23.4003 5.36623 20.3634 5.36623 16.6306C5.36623 12.9563 7.28519 9.2422 8.89511 6.77328C9.76767 5.43517 10.647 4.30743 11.3168 3.50539V7.53954C11.3168 9.15906 12.608 10.4767 14.195 10.4767C15.1652 10.4767 16.025 9.9843 16.5465 9.23147C17.9323 11.8944 18.6338 14.3783 18.6338 16.6306C18.6338 20.3634 15.6579 23.4003 11.9999 23.4003Z" fill="#595959"/>
<path d="M15.8726 13H12.9459C12.5685 13 12.2627 13.3121 12.2627 13.6969C12.2626 14.082 12.5685 14.3942 12.9457 14.3942H14.2235L11.3049 17.3723L9.71845 15.7534C9.45181 15.4813 9.01917 15.4813 8.75253 15.7534L7.20018 17.3373C6.93331 17.6096 6.93331 18.051 7.19999 18.3232C7.46686 18.5956 7.89932 18.5953 8.16614 18.3232L9.23545 17.2322L10.8218 18.8511C10.9499 18.9819 11.1237 19.0553 11.3049 19.0553C11.486 19.0553 11.6598 18.9819 11.7879 18.8511L15.1894 15.3802V16.6837C15.1894 17.0686 15.4952 17.3808 15.8725 17.3808C16.2498 17.3808 16.5556 17.0686 16.5556 16.6837V13.6971C16.5556 13.3121 16.2499 13 15.8726 13Z" fill="#595959"/>
</svg>
