<svg width="16" height="10" viewBox="0 0 16 10" fill="none" xmlns="http://www.w3.org/2000/svg">
<path d="M15.109 1.052C14.8673 0.92975 14.5944 0.872178 14.3201 0.885582C14.0458 0.898986 13.7807 0.98285 13.5539 1.128L10.6665 2.944V1.5C10.6659 1.10234 10.4971 0.721114 10.1972 0.439924C9.89728 0.158734 9.49065 0.000529159 9.06649 0H1.59997C1.1758 0.000529159 0.769173 0.158734 0.469243 0.439924C0.169313 0.721114 0.000564425 1.10234 0 1.5V8.5C0.000564425 8.89766 0.169313 9.27889 0.469243 9.56008C0.769173 9.84127 1.1758 9.99947 1.59997 10H9.06649C9.49065 9.99947 9.89728 9.84127 10.1972 9.56008C10.4971 9.27889 10.6659 8.89766 10.6665 8.5V7.056L13.5539 8.872C13.7803 9.01821 14.0455 9.10272 14.32 9.11614C14.5945 9.12955 14.8677 9.07135 15.109 8.948C15.384 8.80493 15.6121 8.59436 15.769 8.3389C15.9259 8.08344 16.0057 7.79274 15.9997 7.498V2.502C16.0057 2.20726 15.9259 1.91656 15.769 1.6611C15.6121 1.40564 15.384 1.19507 15.109 1.052ZM9.59981 8.5C9.59981 8.63261 9.54362 8.75979 9.4436 8.85355C9.34359 8.94732 9.20793 9 9.06649 9H1.59997C1.45852 9 1.32287 8.94732 1.22285 8.85355C1.12283 8.75979 1.06665 8.63261 1.06665 8.5V1.5C1.06665 1.36739 1.12283 1.24021 1.22285 1.14645C1.32287 1.05268 1.45852 1 1.59997 1H9.06649C9.20793 1 9.34359 1.05268 9.4436 1.14645C9.54362 1.24021 9.59981 1.36739 9.59981 1.5V8.5ZM14.933 7.498C14.9386 7.61152 14.9112 7.72433 14.8537 7.82438C14.7963 7.92443 14.7108 8.00794 14.6066 8.066C14.5358 8.10367 14.4549 8.12144 14.3736 8.11719C14.2922 8.11293 14.2139 8.08683 14.148 8.042L10.6665 5.852V4.148L14.148 1.958C14.2143 1.91396 14.2925 1.88835 14.3736 1.88411C14.4548 1.87986 14.5355 1.89715 14.6066 1.934C14.7108 1.99206 14.7963 2.07557 14.8537 2.17562C14.9112 2.27567 14.9386 2.38848 14.933 2.502V7.498Z" fill="#595959"/>
</svg>
